<?xml version="1.0" encoding="utf-8"?>
<!-- Generator: Adobe Illustrator 16.0.0, SVG Export Plug-In . SVG Version: 6.00 Build 0)  -->
<!DOCTYPE svg PUBLIC "-//W3C//DTD SVG 1.1//EN" "http://www.w3.org/Graphics/SVG/1.1/DTD/svg11.dtd">
<svg version="1.1" id="Layer_1" xmlns="http://www.w3.org/2000/svg" xmlns:xlink="http://www.w3.org/1999/xlink" x="0px" y="0px"
	 width="30.146px" height="30.667px" viewBox="0 0 30.146 30.667" enable-background="new 0 0 30.146 30.667" xml:space="preserve">
<path fill="#21ACA7" d="M30.083,27.334c0,1.656-1.344,3-3,3H3.082c-1.656,0-3-1.344-3-3v-24c0-1.657,1.344-3,3-3h24.001
	c1.656,0,3,1.343,3,3V27.334z"/>
<g>
	<g>
		<g>
			<path fill="#21ACA7" d="M18.547,19.093c-0.974,0-1.769-0.364-2.407-0.657l-0.247-0.112c-0.361-0.16-0.595-0.519-0.595-0.914
				v-1.938c0-0.367,0.201-0.705,0.524-0.88c0.148-0.08,0.313-0.12,0.476-0.12c0.018,0,0.035,0,0.052,0.001
				c-0.221-0.155-0.426-0.334-0.612-0.535c-0.357-0.384-0.639-0.845-0.835-1.369c-0.194-0.516-0.292-1.081-0.292-1.68
				c0-0.684,0.116-1.324,0.346-1.904c0.233-0.588,0.566-1.103,0.99-1.53c0.425-0.43,0.939-0.767,1.529-0.999
				c0.578-0.227,1.216-0.341,1.898-0.341c0.729,0,1.403,0.148,2.001,0.44c0.602,0.295,1.118,0.724,1.536,1.273
				c0.402,0.53,0.708,1.173,0.912,1.915c0.194,0.701,0.293,1.503,0.293,2.383c0,1.036-0.117,1.983-0.35,2.814
				c-0.241,0.869-0.605,1.623-1.082,2.241c-0.494,0.64-1.107,1.138-1.822,1.48C20.123,19.02,19.401,19.093,18.547,19.093z
				 M17.454,15.014c0.293,0.161,0.58,0.274,0.862,0.274c0.345,0,0.568-0.042,0.734-0.121c-0.132,0.012-0.27,0.018-0.412,0.018
				C18.226,15.185,17.829,15.127,17.454,15.014z M19.307,9.917c-0.033,0-0.045,0.006-0.052,0.01
				c-0.029,0.015-0.055,0.037-0.08,0.069c-0.037,0.046-0.069,0.113-0.096,0.196c-0.033,0.102-0.049,0.216-0.049,0.344
				c0,0.147,0.016,0.273,0.046,0.366c0.024,0.074,0.052,0.131,0.08,0.164c0.087,0.054,0.137,0.062,0.197,0.062
				c0.112-0.028,0.138-0.047,0.161-0.074c0.025-0.029,0.049-0.071,0.067-0.125c0.022-0.063,0.034-0.139,0.034-0.222
				c0-0.158-0.019-0.296-0.056-0.423c-0.033-0.115-0.073-0.206-0.121-0.273c-0.025-0.036-0.057-0.065-0.096-0.087L19.307,9.917z"/>
			<path fill="#FFFFFF" d="M19.374,7.115c0.581,0,1.101,0.113,1.563,0.339c0.461,0.227,0.854,0.554,1.18,0.98
				c0.324,0.428,0.572,0.953,0.743,1.574c0.172,0.621,0.257,1.327,0.257,2.118c0,0.95-0.104,1.8-0.313,2.546
				c-0.208,0.748-0.512,1.381-0.911,1.898s-0.887,0.914-1.462,1.189c-0.575,0.277-1.154,0.332-1.884,0.332
				c-0.872,0-1.619-0.404-2.249-0.684v-1.938c0.561,0.367,1.229,0.816,2.019,0.816c0.809,0,1.367-0.193,1.824-0.746
				c0.457-0.551,0.687-1.35,0.692-2.394l-0.045-0.015c-0.472,0.701-1.188,1.051-2.149,1.051c-0.437,0-0.84-0.082-1.209-0.245
				c-0.37-0.163-0.689-0.392-0.96-0.683s-0.48-0.638-0.632-1.04c-0.151-0.403-0.228-0.846-0.228-1.328
				c0-0.562,0.093-1.074,0.275-1.536c0.184-0.462,0.44-0.86,0.771-1.193c0.329-0.333,0.725-0.591,1.186-0.772
				C18.303,7.206,18.814,7.115,19.374,7.115 M19.354,12.128c0.19,0,0.362-0.037,0.516-0.112c0.154-0.075,0.286-0.176,0.397-0.303
				c0.11-0.127,0.196-0.276,0.258-0.449c0.061-0.172,0.092-0.358,0.092-0.558c0-0.25-0.031-0.484-0.096-0.704
				c-0.063-0.22-0.151-0.409-0.264-0.568c-0.113-0.158-0.252-0.284-0.415-0.378c-0.162-0.092-0.341-0.139-0.535-0.139
				c-0.186,0-0.356,0.041-0.513,0.122c-0.156,0.082-0.291,0.193-0.404,0.337c-0.112,0.143-0.2,0.313-0.264,0.514
				c-0.064,0.199-0.096,0.415-0.096,0.646c0,0.254,0.031,0.479,0.096,0.677c0.063,0.197,0.152,0.364,0.268,0.5
				s0.255,0.239,0.417,0.31C18.974,12.093,19.154,12.128,19.354,12.128 M19.374,5.115c-0.808,0-1.569,0.138-2.262,0.409
				c-0.723,0.285-1.354,0.698-1.879,1.229c-0.517,0.521-0.923,1.148-1.206,1.86c-0.277,0.701-0.417,1.465-0.417,2.275
				c0,0.72,0.119,1.403,0.355,2.031c0.188,0.499,0.438,0.953,0.747,1.354c-0.263,0.339-0.415,0.756-0.415,1.198v1.938
				c0,0.791,0.466,1.508,1.189,1.828l0.236,0.107c0.688,0.315,1.631,0.748,2.823,0.748c0.858,0,1.785-0.064,2.752-0.53
				c0.853-0.408,1.587-1.004,2.177-1.77c0.557-0.721,0.979-1.59,1.255-2.584c0.256-0.918,0.386-1.955,0.386-3.082
				c0-0.97-0.11-1.862-0.329-2.651c-0.237-0.862-0.6-1.62-1.077-2.249c-0.517-0.678-1.151-1.204-1.892-1.567
				C21.078,5.297,20.257,5.115,19.374,5.115L19.374,5.115z"/>
		</g>
	</g>
	<g>
		<g>
			<path fill="#21ACA7" d="M8.926,18.781c-0.61,0-1.523-0.098-2.188-0.315c-0.46-0.15-0.747-0.61-0.679-1.09l0.287-2.033
				c0.042-0.294,0.211-0.554,0.462-0.71c0.16-0.1,0.343-0.15,0.528-0.15c0.105,0,0.211,0.017,0.313,0.05
				c0.288,0.096,0.645,0.147,1.005,0.147c0.473,0,0.759,0,0.759-1.215V7.427c0-0.552,0.448-1,1-1h2.571c0.553,0,1,0.448,1,1v6.071
				C13.984,16.954,12.235,18.781,8.926,18.781z"/>
			<path fill="#FFFFFF" d="M12.984,7.427v6.071c0,3.176-1.556,4.283-4.058,4.283c-0.592,0-1.37-0.1-1.877-0.266l0.287-2.033
				C7.692,15.6,8.148,15.68,8.655,15.68c1.082,0,1.759-0.479,1.759-2.215V7.427H12.984 M12.984,5.427h-2.571c-1.104,0-2,0.896-2,2
				v6.038c0,0.077-0.002,0.145-0.005,0.204c-0.226-0.021-0.38-0.064-0.446-0.086c-0.204-0.067-0.416-0.101-0.626-0.101
				c-0.369,0-0.735,0.102-1.056,0.301c-0.503,0.313-0.842,0.833-0.925,1.419l-0.287,2.033c-0.135,0.959,0.437,1.878,1.358,2.18
				c0.822,0.27,1.86,0.365,2.5,0.365c3.85,0,6.058-2.29,6.058-6.283V7.427C14.984,6.322,14.089,5.427,12.984,5.427L12.984,5.427z"/>
		</g>
	</g>
</g>
<g>
	<path fill="#FFFFFF" d="M7.393,24.134c0,0.461-0.107,0.813-0.32,1.058c-0.213,0.245-0.522,0.367-0.927,0.367
		c-0.18,0-0.348-0.031-0.501-0.094v-0.727c0.132,0.101,0.281,0.151,0.446,0.151c0.353,0,0.53-0.263,0.53-0.787v-2.042h0.772V24.134z
		"/>
	<path fill="#FFFFFF" d="M11.186,25.498h-0.758V25.16h-0.009c-0.173,0.266-0.426,0.398-0.76,0.398c-0.307,0-0.554-0.108-0.741-0.325
		s-0.281-0.519-0.281-0.907c0-0.406,0.103-0.731,0.31-0.977c0.206-0.244,0.477-0.366,0.811-0.366c0.316,0,0.537,0.113,0.662,0.34
		h0.009v-1.46h0.758V25.498z M10.442,24.305V24.12c0-0.16-0.046-0.293-0.139-0.398s-0.213-0.158-0.362-0.158
		c-0.168,0-0.299,0.066-0.394,0.198c-0.094,0.132-0.141,0.313-0.141,0.543c0,0.216,0.045,0.382,0.136,0.498
		c0.091,0.116,0.218,0.176,0.379,0.176c0.154,0,0.279-0.062,0.375-0.185C10.394,24.67,10.442,24.507,10.442,24.305z"/>
	<path fill="#FFFFFF" d="M14.74,24.486h-1.602c0.025,0.356,0.25,0.535,0.674,0.535c0.27,0,0.507-0.063,0.712-0.192v0.547
		c-0.227,0.121-0.521,0.183-0.885,0.183c-0.396,0-0.704-0.11-0.923-0.33c-0.22-0.219-0.329-0.526-0.329-0.919
		c0-0.408,0.119-0.73,0.355-0.969c0.236-0.239,0.527-0.357,0.872-0.357c0.359,0,0.636,0.106,0.831,0.318
		c0.195,0.213,0.294,0.502,0.294,0.866V24.486z M14.038,24.021c0-0.352-0.143-0.527-0.427-0.527c-0.121,0-0.227,0.05-0.315,0.15
		c-0.089,0.102-0.143,0.228-0.162,0.377H14.038z"/>
	<path fill="#FFFFFF" d="M15.742,25.434V24.82c0.125,0.075,0.25,0.13,0.373,0.167c0.124,0.037,0.241,0.056,0.352,0.056
		c0.134,0,0.239-0.019,0.317-0.056S16.9,24.896,16.9,24.82c0-0.049-0.018-0.088-0.053-0.12c-0.034-0.032-0.08-0.061-0.136-0.084
		c-0.055-0.024-0.114-0.046-0.181-0.064c-0.065-0.02-0.128-0.041-0.189-0.065c-0.097-0.037-0.184-0.076-0.258-0.118
		s-0.137-0.092-0.187-0.147c-0.051-0.057-0.089-0.121-0.115-0.194s-0.04-0.161-0.04-0.262c0-0.138,0.03-0.255,0.09-0.354
		c0.061-0.1,0.141-0.18,0.24-0.243s0.215-0.109,0.343-0.14c0.128-0.029,0.263-0.044,0.401-0.044c0.109,0,0.22,0.008,0.331,0.025
		c0.111,0.017,0.222,0.04,0.331,0.072v0.586c-0.096-0.057-0.199-0.099-0.309-0.126c-0.108-0.028-0.217-0.042-0.322-0.042
		c-0.049,0-0.096,0.005-0.14,0.013c-0.045,0.009-0.083,0.021-0.117,0.038c-0.033,0.018-0.06,0.039-0.079,0.065
		c-0.019,0.026-0.028,0.056-0.028,0.09c0,0.044,0.015,0.083,0.043,0.115c0.029,0.032,0.066,0.06,0.113,0.082
		c0.046,0.023,0.098,0.045,0.154,0.063c0.057,0.019,0.112,0.037,0.169,0.057c0.101,0.035,0.191,0.073,0.273,0.115
		c0.081,0.042,0.151,0.09,0.21,0.146c0.059,0.056,0.103,0.121,0.134,0.196s0.047,0.164,0.047,0.269c0,0.145-0.031,0.27-0.095,0.373
		c-0.063,0.103-0.147,0.187-0.252,0.251c-0.104,0.065-0.225,0.112-0.361,0.142c-0.137,0.03-0.278,0.045-0.426,0.045
		C16.224,25.559,15.973,25.517,15.742,25.434z"/>
	<path fill="#FFFFFF" d="M21.235,25.498h-0.908l-0.784-1.218h-0.01v1.218h-0.758v-3.635h0.758v2.314h0.01l0.731-1.135h0.898
		l-0.88,1.153L21.235,25.498z"/>
	<path fill="#FFFFFF" d="M24.521,23.614c0,0.306-0.033,0.577-0.101,0.818s-0.166,0.443-0.294,0.61s-0.285,0.294-0.471,0.383
		c-0.187,0.088-0.396,0.133-0.631,0.133c-0.282,0-0.524-0.045-0.727-0.135v-0.623c0.181,0.118,0.398,0.178,0.652,0.178
		c0.26,0,0.464-0.089,0.611-0.267s0.222-0.434,0.223-0.77l-0.015-0.005c-0.151,0.226-0.382,0.338-0.692,0.338
		c-0.141,0-0.271-0.026-0.39-0.079c-0.119-0.053-0.222-0.126-0.31-0.219c-0.087-0.094-0.154-0.205-0.203-0.335
		c-0.05-0.13-0.073-0.272-0.073-0.427c0-0.181,0.029-0.346,0.088-0.494c0.06-0.148,0.142-0.276,0.249-0.384
		c0.106-0.106,0.233-0.189,0.382-0.248s0.313-0.087,0.494-0.087c0.188,0,0.354,0.035,0.504,0.108
		c0.148,0.073,0.275,0.178,0.38,0.315s0.185,0.306,0.239,0.506C24.493,23.133,24.521,23.359,24.521,23.614z M23.756,23.211
		c0-0.088-0.011-0.17-0.034-0.248c-0.022-0.078-0.054-0.144-0.093-0.2c-0.04-0.057-0.089-0.101-0.146-0.133s-0.121-0.05-0.189-0.05
		c-0.066,0-0.126,0.015-0.181,0.044c-0.056,0.028-0.104,0.068-0.144,0.118c-0.039,0.051-0.07,0.11-0.093,0.181
		c-0.023,0.071-0.034,0.146-0.034,0.229c0,0.09,0.011,0.169,0.034,0.238c0.022,0.069,0.054,0.128,0.095,0.176
		c0.04,0.049,0.09,0.084,0.147,0.109s0.121,0.037,0.191,0.037c0.067,0,0.128-0.013,0.183-0.039c0.054-0.026,0.101-0.063,0.14-0.107
		c0.04-0.044,0.07-0.097,0.092-0.158C23.745,23.347,23.756,23.282,23.756,23.211z"/>
</g>
</svg>
